HIERARCHY
ROOT root
{
	OFFSET	0	13.1	24.9
	CHANNELS 6  Xposition Yposition Zposition Xrotation Yrotation Zrotation
	JOINT spine_1
	{
		OFFSET	0	9.99999	0
		CHANNELS 3  Xrotation Yrotation Zrotation
		JOINT spine_2
		{
			OFFSET	0	112	-10
			CHANNELS 3  Xrotation Yrotation Zrotation
			JOINT spine_3
			{
				OFFSET	0	206.5	19.3
				CHANNELS 3  Xrotation Yrotation Zrotation
				JOINT spine_4
				{
					OFFSET	0	110.4	14.6
					CHANNELS 3  Xrotation Yrotation Zrotation
					JOINT neck_1
					{
						OFFSET	0	71.8	-50.3
						CHANNELS 3  Xrotation Yrotation Zrotation
						JOINT neck_2
						{
							OFFSET	0	86.2	-25.8
							CHANNELS 3  Xrotation Yrotation Zrotation
							JOINT head_ee
							{
								OFFSET	0	179.8	-8.7
								CHANNELS 3  Xrotation Yrotation Zrotation
								End Site
								{
									OFFSET	1	0	0
								}
							}
						}
					}
					JOINT left_clavicle
					{
						OFFSET	-43.2	22.4	-70.8
						CHANNELS 3  Xrotation Yrotation Zrotation
						JOINT left_shoulder
						{
							OFFSET	-93.9	-5.79999	48.7
							CHANNELS 3  Xrotation Yrotation Zrotation
							JOINT left_elbow
							{
								OFFSET	-291.4	-30.8	15.2
								CHANNELS 3  Xrotation Yrotation Zrotation
								JOINT left_lowarm_twist
								{
									OFFSET	-110.7	-3.89999	13.6
									CHANNELS 3  Xrotation Yrotation Zrotation
									JOINT left_hand
									{
										OFFSET	-110.7	-3.89999	13.6
										CHANNELS 3  Xrotation Yrotation Zrotation
										JOINT left_ee
										{
											OFFSET	-80.8	-5.10001	12.1
											CHANNELS 3  Xrotation Yrotation Zrotation
											End Site
											{
												OFFSET	1	0	0
											}
										}
									}
								}
							}
						}
					}
					JOINT right_clavicle
					{
						OFFSET	43.2	22.4	-70.8
						CHANNELS 3  Xrotation Yrotation Zrotation
						JOINT right_shoulder
						{
							OFFSET	93.9	-5.79999	48.7
							CHANNELS 3  Xrotation Yrotation Zrotation
							JOINT right_elbow
							{
								OFFSET	291.4	-30.8	15.2
								CHANNELS 3  Xrotation Yrotation Zrotation
								JOINT right_lowarm_twist
								{
									OFFSET	110.7	-3.89999	13.6
									CHANNELS 3  Xrotation Yrotation Zrotation
									JOINT right_hand
									{
										OFFSET	110.7	-3.89999	13.6
										CHANNELS 3  Xrotation Yrotation Zrotation
										JOINT right_ee
										{
											OFFSET	80.8	-5.10001	12.1
											CHANNELS 3  Xrotation Yrotation Zrotation
											End Site
											{
												OFFSET	1	0	0
											}
										}
									}
								}
							}
						}
					}
				}
			}
		}
	}
	JOINT left_hip
	{
		OFFSET	-82.8	-127.5	0.300001
		CHANNELS 3  Xrotation Yrotation Zrotation
		JOINT left_knee
		{
			OFFSET	-28.2	-396.7	2.2
			CHANNELS 3  Xrotation Yrotation Zrotation
			JOINT left_ankle
			{
				OFFSET	-11.7	-411.3	35.4
				CHANNELS 3  Xrotation Yrotation Zrotation
				JOINT left_toes
				{
					OFFSET	0	-60	-88.6
					CHANNELS 3  Xrotation Yrotation Zrotation
					JOINT left_foot_ee
					{
						OFFSET	-22.5	-16.5	-42.2
						CHANNELS 3  Xrotation Yrotation Zrotation
						End Site
						{
							OFFSET	1	0	0
						}
					}
				}
			}
		}
	}
	JOINT right_hip
	{
		OFFSET	82.8	-127.5	0.300001
		CHANNELS 3  Xrotation Yrotation Zrotation
		JOINT right_knee
		{
			OFFSET	28.2	-396.7	2.2
			CHANNELS 3  Xrotation Yrotation Zrotation
			JOINT right_ankle
			{
				OFFSET	11.7	-411.3	35.4
				CHANNELS 3  Xrotation Yrotation Zrotation
				JOINT right_toes
				{
					OFFSET	0	-60	-88.6
					CHANNELS 3  Xrotation Yrotation Zrotation
					JOINT right_foot_ee
					{
						OFFSET	22.5	-16.5	-42.2
						CHANNELS 3  Xrotation Yrotation Zrotation
						End Site
						{
							OFFSET	1	0	0
						}
					}
				}
			}
		}
	}
}
MOTION
Frames: 11
Frame Time: 0.02
2187.56 717.308 -1546.35 -2.225 58.2113 1.23258 0.898102 0.228831 1.02355 0.89867 0.16324 1.03603 0.901814 -0.0416627 1.04799 0.900303 0.124361 1.04142 -27.7527 17.7397 5.82275 -30.3705 31.8241 16.1967 -0.0 0.0 -0.0 3.21677 22.6408 7.11857 -29.6836 -6.70328 66.9346 0.808631 -21.8295 0.155937 -56.3766 -4.83588 4.97416 0.821928 17.6149 12.2314 -0.0 0.0 -0.0 12.3038 16.6199 -24.83 -8.84363 17.1317 -59.8345 1.77397 41.3044 -0.668683 85.4576 4.4814 8.88701 -2.2974 -27.946 1.57753 0.0 0.0 0.0 24.0912 39.0463 -22.7805 -22.3783 0.259811 3.40251 22.1441 -9.23517 -3.11558 -15.8408 0.0 0.0 -0.0 0.0 -0.0 15.9542 14.4154 -6.75349 -12.2677 -0.307628 -1.85394 26.5604 21.9436 3.98826 -18.0138 0.0 0.0 0.0 0.0 0.0 
2187.55 717.446 -1546.77 -4.68887 57.9882 4.07157 1.04648 0.256171 0.785695 1.0468 0.205658 0.800402 1.0498 0.0479722 0.825006 1.04889 0.17766 0.807078 -27.7756 17.6887 6.09038 -30.3475 31.6322 16.4016 -0.0 0.0 -0.0 3.0994 23.4873 6.9699 -29.3949 -6.95204 66.8046 0.785912 -21.2718 0.147591 -56.5999 -4.86319 4.98281 0.928163 17.7518 12.9416 -0.0 0.0 -0.0 12.0932 16.2968 -24.3606 -8.00769 16.7386 -59.5537 1.88527 43.0383 -0.743412 85.4333 4.47848 8.88591 -1.51428 -27.7032 -2.56474 0.0 0.0 0.0 25.5695 40.9519 -22.8839 -15.1172 0.321832 2.29087 19.1971 -10.834 -2.76596 -17.0245 0.0 0.0 -0.0 0.0 -0.0 18.1489 13.4923 -7.78181 -11.7986 -0.303208 -1.78211 25.7955 20.0207 3.82506 -17.8564 0.0 0.0 0.0 0.0 0.0 
2184.51 719.959 -1540.24 -6.91128 57.1891 6.48052 1.20985 0.266918 0.631292 1.21004 0.226207 0.646996 1.21268 0.0995551 0.67813 1.21209 0.205401 0.653898 -23.0731 18.9604 4.97543 -25.447 34.2852 14.5035 -0.0 0.0 -0.0 2.96972 24.3093 6.80845 -28.9355 -7.53928 67.9943 0.778362 -21.0855 0.144864 -56.9781 -4.9095 4.9972 1.00503 18.9467 13.8271 -0.0 0.0 -0.0 12.087 16.2751 -24.3473 -8.3127 16.1884 -59.4244 1.79628 41.6596 -0.683462 85.1496 4.44444 8.873 -0.540686 -27.3698 -7.76674 0.0 0.0 0.0 25.8077 42.4656 -22.4417 -12.9858 0.313256 1.96398 18.115 -12.0188 -2.64243 -16.274 0.0 0.0 -0.0 0.0 -0.0 19.3592 13.0331 -8.35246 -11.0176 -0.294543 -1.66258 23.4509 18.8732 3.49253 -18.4636 0.0 0.0 0.0 0.0 0.0 
2176.83 716.386 -1540.24 -7.65522 56.7032 7.12596 1.27181 0.299421 0.563522 1.27194 0.262956 0.581432 1.27468 0.148732 0.620554 1.27423 0.244869 0.589278 -23.2662 18.3207 5.45266 -25.4175 32.863 14.5756 -0.0 0.0 -0.0 2.89496 24.3188 6.70734 -30.1057 -7.89048 68.7006 0.809275 -21.8453 0.156176 -57.2217 -4.93939 5.00632 1.01787 18.3446 13.704 -0.0 0.0 -0.0 12.3737 16.6196 -24.9909 -7.85667 15.252 -59.4026 1.80075 41.7302 -0.68643 85.192 4.44953 8.87495 0.237191 -24.6673 -11.1744 0.0 0.0 0.0 25.6827 43.571 -22.0868 -12.3444 0.308295 1.86569 17.8279 -12.7621 -2.61627 -14.7099 0.0 0.0 -0.0 0.0 -0.0 20.1507 12.6163 -8.67691 -10.7176 -0.290782 -1.61671 23.2214 16.9167 3.40923 -18.9776 0.0 0.0 0.0 0.0 0.0 
2170.88 720.5 -1538.87 -8.04027 55.7506 7.51235 1.37792 0.319639 0.484434 1.37801 0.288166 0.503791 1.3806 0.18913 0.548702 1.38028 0.273412 0.511948 -22.3248 20.1832 7.92265 -24.5893 35.2578 17.5137 -0.0 0.0 -0.0 2.79366 24.4366 6.57314 -31.2477 -7.93873 69.2692 0.864862 -23.1914 0.177466 -57.5072 -4.97447 5.01683 1.06198 17.2097 13.5945 -0.0 0.0 -0.0 12.4913 17.3195 -25.2286 -7.54232 14.5454 -59.967 1.68676 39.8778 -0.611933 85.29 4.46128 8.87942 0.810106 -22.5152 -13.8217 0.0 0.0 0.0 25.861 44.17 -22.4495 -12.786 0.311828 1.93335 16.036 -12.3327 -2.36709 -14.9064 0.0 0.0 -0.0 0.0 -0.0 20.5269 12.2679 -8.41394 -10.5691 -0.288831 -1.594 21.2232 19.3359 3.21371 -20.4316 0.0 0.0 0.0 0.0 0.0 
2163.81 723.029 -1534.58 -8.01947 55.3443 7.05906 1.40386 0.415358 0.520715 1.40393 0.381382 0.546089 1.40764 0.273113 0.607514 1.40732 0.365629 0.556759 -22.8459 19.5105 8.1929 -24.9601 33.9078 17.5309 -0.0 0.0 -0.0 2.51693 24.4824 6.20118 -30.8833 -8.02663 70.1123 0.888096 -23.7462 0.186719 -57.9338 -5.02697 5.03222 0.907368 18.0977 12.9311 -0.0 0.0 -0.0 12.6336 18.1597 -25.5124 -8.51558 14.008 -59.3944 1.64442 39.1631 -0.58499 85.0091 4.42762 8.86655 1.11673 -22.1186 -15.5466 0.0 0.0 0.0 25.2676 45.0168 -21.9834 -14.179 0.319556 2.14695 16.2781 -12.7728 -2.4068 -11.8829 0.0 0.0 -0.0 0.0 -0.0 19.5045 12.6712 -7.44987 -10.4117 -0.2867 -1.56995 23.4426 15.8803 3.41091 -20.3086 0.0 0.0 0.0 0.0 0.0 
2157.44 725.185 -1531.49 -7.52285 55.0281 6.79141 1.41636 0.480943 0.520117 1.4164 0.446872 0.549666 1.42078 0.33694 0.623135 1.42049 0.431123 0.562103 -21.7427 20.2812 9.52034 -23.7055 34.6417 18.6817 -0.0 0.0 -0.0 2.66696 24.8711 6.41458 -30.5688 -6.57896 70.1562 0.909428 -24.2514 0.195395 -57.9372 -5.02739 5.03234 0.943736 16.6721 12.6647 -0.0 0.0 -0.0 12.6747 18.9156 -25.5624 -8.88905 13.6743 -59.7884 1.56257 37.7389 -0.534085 84.9593 4.42165 8.86425 1.25798 -19.5463 -15.5982 0.0 0.0 0.0 25.4144 45.3562 -22.3846 -14.6791 0.321062 2.22365 17.8169 -12.623 -2.6125 -11.7176 0.0 0.0 -0.0 0.0 -0.0 20.1921 11.6188 -7.22173 -13.122 -0.314167 -1.98485 23.1664 17.3592 3.41386 -21.296 0.0 0.0 0.0 0.0 0.0 
2156.73 723.795 -1530.61 -8.14444 55.2572 7.33147 1.47398 0.493806 0.371222 1.47393 0.469184 0.401892 1.47728 0.386798 0.481703 1.47725 0.458019 0.414571 -21.8113 20.2307 9.90567 -23.718 34.3791 19.0063 -0.0 0.0 -0.0 2.36219 24.0765 5.97713 -30.5295 -7.90103 70.4747 0.942675 -25.0309 0.209258 -58.4811 -5.09449 5.05139 0.980103 16.8394 12.9518 -0.0 0.0 -0.0 12.9426 20.6338 -26.0651 -9.10662 12.8443 -59.7171 1.44822 35.6538 -0.465746 84.376 4.35196 8.83695 0.852602 -18.8015 -12.8332 0.0 0.0 0.0 25.5157 45.8652 -22.078 -14.7696 0.321264 2.23754 16.3879 -11.7863 -2.40695 -10.9881 0.0 0.0 -0.0 0.0 -0.0 19.0262 11.6964 -6.78039 -10.482 -0.28766 -1.58069 22.701 19.2522 3.40645 -22.6746 0.0 0.0 0.0 0.0 0.0 
2152.32 723.43 -1530.36 -8.22307 55.4391 7.72463 1.55903 0.407106 0.278968 1.55899 0.388529 0.304307 1.56109 0.326112 0.370417 1.5611 0.38052 0.314265 -22.2415 21.0375 12.9707 -24.0044 34.6312 22.2677 -0.0 0.0 -0.0 1.96334 23.9723 5.43057 -29.913 -8.38263 70.9746 0.969853 -25.6609 0.220892 -58.5877 -5.10765 5.05504 1.26634 16.4743 14.6384 -0.0 0.0 -0.0 12.7125 20.2899 -25.5565 -9.68596 12.616 -59.9015 1.45771 35.8312 -0.471289 85.0618 4.43392 8.86898 1.33907 -17.9375 -15.5858 0.0 0.0 0.0 25.0232 45.8965 -22.1679 -14.702 0.321115 2.22717 13.9651 -12.5254 -2.08332 -7.85445 0.0 0.0 -0.0 0.0 -0.0 19.4203 11.8773 -7.09141 -11.8458 -0.303679 -1.78933 22.5651 14.0587 3.25798 -23.4652 0.0 0.0 0.0 0.0 0.0 
2148.02 723.737 -1528.3 -7.81344 56.4925 7.79357 1.5628 0.323273 0.160318 1.56276 0.312416 0.180564 1.56376 0.273999 0.234801 1.56382 0.307643 0.188581 -21.9176 20.3112 11.4116 -23.6487 33.8666 20.3738 -0.0 0.0 -0.0 2.19022 23.8988 5.73579 -28.7244 -8.98762 70.4064 0.975894 -25.8 0.223515 -58.7645 -5.12951 5.06106 1.4176 16.2837 15.5406 -0.0 0.0 -0.0 12.6674 20.6664 -25.4237 -10.8454 12.2322 -60.1908 1.34493 33.6713 -0.406988 85.1099 4.43969 8.87119 1.31965 -18.0101 -15.4868 0.0 0.0 0.0 25.5795 46.194 -22.6936 -14.0302 0.318978 2.12412 12.4481 -11.5206 -1.85745 -5.10044 0.0 0.0 -0.0 0.0 -0.0 19.266 12.4791 -7.14906 -12.6077 -0.310465 -1.90604 24.1193 16.8135 3.51991 -24.5082 0.0 0.0 0.0 0.0 0.0 
2146.08 725.36 -1525.1 -8.40281 56.6101 8.56992 1.66851 0.359936 0.0953644 1.66845 0.353138 0.118075 1.66919 0.325824 0.180242 1.66931 0.350201 0.126522 -22.6433 19.63 10.2532 -24.4771 33.2001 19.2781 -0.0 0.0 -0.0 2.368 24.5531 6.00327 -26.9788 -5.83728 70.1511 1.02332 -26.881 0.244561 -61.4887 -5.46845 5.14511 0.779109 20.1657 12.8479 -0.0 0.0 -0.0 12.896 22.5446 -25.7968 -11.461 11.7083 -60.5236 1.2232 31.212 -0.341675 85.2045 4.45103 8.87552 1.33932 -18.1886 -15.6693 0.0 0.0 0.0 25.8223 46.2416 -22.7099 -13.6499 0.317232 2.0658 12.5182 -12.446 -1.87817 -3.19868 0.0 0.0 -0.0 0.0 -0.0 18.7531 13.7744 -7.12393 -13.7571 -0.317763 -2.08224 25.9575 16.1275 3.72786 -24.5775 0.0 0.0 0.0 0.0 0.0 
